<svg width="24" height="24" viewBox="0 0 24 24" fill="none" xmlns="http://www.w3.org/2000/svg">
<path d="M5.56066 12.2222L20.25 12.2222C20.6642 12.2222 21 11.8989 21 11.5C21 11.1011 20.6642 10.7778 20.25 10.7778L5.56066 10.7778L10.2803 6.23291C10.5732 5.95087 10.5732 5.49358 10.2803 5.21153C9.98744 4.92949 9.51257 4.92949 9.21967 5.21153L3.21967 10.9893C2.92678 11.2714 2.92678 11.7286 3.21967 12.0107L9.21967 17.7885C9.51256 18.0705 9.98744 18.0705 10.2803 17.7885C10.5732 17.5064 10.5732 17.0491 10.2803 16.7671L5.56066 12.2222Z" fill="#1A1A1A"/>
<path fill-rule="evenodd" clip-rule="evenodd" d="M10.2456 17.7525C9.97207 18.0159 9.52783 18.0159 9.2543 17.7525L3.2543 11.9747C2.98183 11.7123 2.98183 11.2878 3.2543 11.0254L9.25431 5.2476C9.52784 4.9842 9.97207 4.9842 10.2456 5.2476C10.5181 5.50998 10.5181 5.93457 10.2456 6.19695L5.43661 10.8278L20.25 10.8278C20.6383 10.8278 20.95 11.1306 20.95 11.5001C20.95 11.8695 20.6383 12.1723 20.25 12.1723L5.43661 12.1723L10.2456 16.8032C10.5181 17.0655 10.5181 17.4901 10.2456 17.7525ZM9.18494 17.8245C9.4972 18.1252 10.0027 18.1252 10.315 17.8245C10.6283 17.5228 10.6283 17.0328 10.315 16.7311L5.68462 12.2723L20.25 12.2723C20.69 12.2723 21.05 11.9283 21.05 11.5001C21.05 11.0718 20.69 10.7278 20.25 10.7278L5.68462 10.7278L10.315 6.26898C10.6283 5.96726 10.6283 5.47728 10.315 5.17557C10.0027 4.87488 9.4972 4.87488 9.18494 5.17557L3.18494 10.9533C2.87162 11.2551 2.87162 11.745 3.18494 12.0468L9.18494 17.8245Z" fill="#1A1A1A"/>
</svg>
