<svg width="24" height="24" viewBox="0 0 24 24" fill="none" xmlns="http://www.w3.org/2000/svg">
<path d="M11.9999 11.0101L17.8049 5.20503C18.0783 4.93166 18.5215 4.93166 18.7949 5.20503C19.0682 5.47839 19.0682 5.92161 18.7949 6.19497L12.9898 12L18.7949 17.805C19.0682 18.0784 19.0682 18.5216 18.7949 18.795C18.5215 19.0683 18.0783 19.0683 17.8049 18.795L11.9999 12.9899L6.19485 18.795C5.92149 19.0683 5.47827 19.0683 5.2049 18.795C4.93154 18.5216 4.93154 18.0784 5.2049 17.805L11.0099 12L5.2049 6.19497C4.93154 5.92161 4.93154 5.47839 5.2049 5.20503C5.47827 4.93166 5.92149 4.93166 6.19485 5.20503L11.9999 11.0101Z" fill="#1A1A1A"/>
<path fill-rule="evenodd" clip-rule="evenodd" d="M6.10292 5.29682C5.88033 5.07422 5.51942 5.07422 5.29682 5.29682C5.07422 5.51942 5.07422 5.88033 5.29682 6.10292L11.1938 11.9999L5.29682 17.8968C5.07422 18.1194 5.07422 18.4803 5.29682 18.7029C5.51942 18.9255 5.88033 18.9255 6.10292 18.7029L11.9999 12.806L17.8968 18.7029C18.1194 18.9255 18.4803 18.9255 18.7029 18.7029C18.9255 18.4803 18.9255 18.1194 18.7029 17.8968L12.806 11.9999L18.7029 6.10292C18.9255 5.88033 18.9255 5.51942 18.7029 5.29682C18.4803 5.07422 18.1194 5.07422 17.8968 5.29682L11.9999 11.1938L6.10292 5.29682ZM5.11297 5.11297C5.43711 4.78884 5.96264 4.78884 6.28677 5.11297L11.9999 10.8261L17.713 5.11297C18.0371 4.78884 18.5626 4.78884 18.8868 5.11297C19.2109 5.43711 19.2109 5.96264 18.8868 6.28677L13.1737 11.9999L18.8868 17.713C19.2109 18.0371 19.2109 18.5626 18.8868 18.8868C18.5626 19.2109 18.0371 19.2109 17.713 18.8868L11.9999 13.1737L6.28677 18.8868C5.96264 19.2109 5.43711 19.2109 5.11297 18.8868C4.78884 18.5626 4.78884 18.0371 5.11297 17.713L10.8261 11.9999L5.11297 6.28677C4.78884 5.96264 4.78884 5.43711 5.11297 5.11297Z" fill="#1A1A1A"/>
</svg>
