<svg width="24" height="24" viewBox="0 0 24 24" fill="none" xmlns="http://www.w3.org/2000/svg">
<path fill-rule="evenodd" clip-rule="evenodd" d="M3.85355 20.8536C3.65829 21.0488 3.34171 21.0488 3.14645 20.8536C2.95118 20.6583 2.95118 20.3417 3.14645 20.1464L20.1464 3.14645C20.3417 2.95118 20.6583 2.95118 20.8536 3.14645C21.0488 3.34171 21.0488 3.65829 20.8536 3.85355L3.85355 20.8536ZM5.56743 15.5622C5.77394 15.7455 5.79272 16.0615 5.60938 16.2681C5.42605 16.4746 5.11002 16.4933 4.90352 16.31C3.63534 15.1841 2.65019 13.7704 2.03382 12.1808C1.98873 12.0645 1.98873 11.9355 2.03382 11.8192C4.09127 6.51317 9.94271 3.75672 15.3273 5.52527C15.5897 5.61143 15.7325 5.89397 15.6463 6.15632C15.5601 6.41868 15.2776 6.5615 15.0153 6.47533C10.1969 4.89276 4.96479 7.30886 3.03835 12C3.60037 13.3673 4.46614 14.5845 5.56743 15.5622ZM12.6197 8.04779C12.8926 8.09028 13.0793 8.34591 13.0369 8.61876C12.9944 8.89162 12.7387 9.07837 12.4659 9.03589C12.3129 9.01206 12.1573 9 12 9C10.3431 9 9 10.3431 9 12C9 12.1556 9.01181 12.3096 9.03513 12.461C9.07717 12.7339 8.88999 12.9893 8.61707 13.0313C8.34414 13.0733 8.08882 12.8862 8.04678 12.6132C8.01571 12.4115 8 12.2066 8 12C8 9.79086 9.79086 8 12 8C12.2088 8 12.4159 8.01605 12.6197 8.04779ZM11.0279 15.4004C10.9907 15.674 11.1823 15.926 11.4559 15.9632C11.6353 15.9877 11.817 16 12 16C14.2091 16 16 14.2091 16 12C16 11.8387 15.9904 11.6784 15.9714 11.5198C15.9386 11.2456 15.6897 11.05 15.4155 11.0828C15.1413 11.1157 14.9457 11.3646 14.9785 11.6387C14.9928 11.7579 15 11.8784 15 12C15 13.6569 13.6569 15 12 15C11.8621 15 11.7255 14.9907 11.5908 14.9724C11.3172 14.9351 11.0652 15.1267 11.0279 15.4004ZM18.3906 7.73195C18.2073 7.93845 18.2261 8.25448 18.4326 8.43781C19.5339 9.41555 20.3996 10.6327 20.9616 12C19.0352 16.6911 13.8031 19.1072 8.98475 17.5247C8.72239 17.4385 8.43986 17.5813 8.35369 17.8437C8.26752 18.106 8.41035 18.3886 8.6727 18.4747C14.0573 20.2433 19.9087 17.4868 21.9662 12.1808C22.0113 12.0645 22.0113 11.9355 21.9662 11.8192C21.3498 10.2296 20.3647 8.8159 19.0965 7.69C18.89 7.50667 18.5739 7.52545 18.3906 7.73195Z" fill="#1A1A1A"/>
<path fill-rule="evenodd" clip-rule="evenodd" d="M20.0404 3.04048C20.2942 2.78664 20.7058 2.78664 20.9596 3.04048C21.2134 3.29432 21.2134 3.70588 20.9596 3.95972L3.95959 20.9597C3.70575 21.2136 3.2942 21.2136 3.04036 20.9597C2.78652 20.7059 2.78652 20.2943 3.04036 20.0405L20.0404 3.04048ZM20.7475 3.25261C20.6108 3.11593 20.3892 3.11593 20.2525 3.25261L3.25249 20.2526C3.1158 20.3893 3.1158 20.6109 3.25249 20.7476C3.38917 20.8843 3.61078 20.8843 3.74746 20.7476L20.7475 3.74758C20.8841 3.6109 20.8841 3.38929 20.7475 3.25261ZM1.89394 11.7651C3.98026 6.38461 9.91374 3.58943 15.3741 5.38285C15.7151 5.49487 15.9008 5.86217 15.7888 6.20323C15.6768 6.54429 15.3095 6.72996 14.9684 6.61794C10.2444 5.06636 5.11616 7.41903 3.20071 12C3.75452 13.3231 4.59807 14.5011 5.667 15.4501C5.93545 15.6884 5.95987 16.0993 5.72153 16.3677C5.4832 16.6362 5.07237 16.6606 4.80391 16.4223C3.51794 15.2806 2.51896 13.847 1.89394 12.2351C1.83532 12.0839 1.83532 11.9163 1.89394 11.7651ZM15.2805 5.66787C9.97163 3.92421 4.20224 6.64192 2.17365 11.8736C2.14208 11.955 2.14208 12.0452 2.17365 12.1266C2.78137 13.6939 3.75269 15.0878 5.00308 16.1979C5.14764 16.3263 5.36885 16.3131 5.49719 16.1686C5.62552 16.024 5.61237 15.8028 5.46782 15.6745C4.34949 14.6816 3.47031 13.4456 2.89959 12.0571L2.87616 12.0001L2.89957 11.9431C4.85584 7.17934 10.1688 4.72577 15.062 6.33292C15.2457 6.39324 15.4435 6.29326 15.5038 6.10961C15.5641 5.92596 15.4641 5.72819 15.2805 5.66787ZM18.9969 7.80227C18.8523 7.67394 18.6311 7.68708 18.5028 7.83163C18.3744 7.97619 18.3876 8.1974 18.5321 8.32574C19.6505 9.3186 20.5296 10.5546 21.1004 11.9431L21.1238 12.0001L21.1004 12.0571C19.1441 16.8208 13.8311 19.2744 8.93792 17.6673C8.75427 17.607 8.5565 17.7069 8.49618 17.8906C8.43586 18.0742 8.53584 18.272 8.71949 18.3323C14.0283 20.076 19.7977 17.3583 21.8263 12.1266C21.8579 12.0452 21.8579 11.955 21.8263 11.8736C21.2186 10.3063 20.2473 8.91238 18.9969 7.80227ZM18.2784 7.63246C18.5168 7.36401 18.9276 7.33959 19.196 7.57793C20.482 8.71962 21.481 10.1532 22.106 11.7651C22.1646 11.9163 22.1646 12.0839 22.106 12.2351C20.0197 17.6156 14.0862 20.4108 8.62587 18.6173C8.28481 18.5053 8.09914 18.138 8.21116 17.797C8.32318 17.4559 8.69047 17.2702 9.03153 17.3823C13.7555 18.9338 18.8838 16.5812 20.7992 12.0002C20.2454 10.6771 19.4019 9.49908 18.333 8.55008C18.0645 8.31175 18.0401 7.90091 18.2784 7.63246ZM7.84998 12.0001C7.84998 9.70812 9.70799 7.8501 12 7.8501C12.2165 7.8501 12.4312 7.86674 12.6428 7.89967C12.9975 7.9549 13.2403 8.28723 13.185 8.64194C13.1298 8.99665 12.7975 9.23943 12.4428 9.1842C12.2974 9.16157 12.1496 9.1501 12 9.1501C10.426 9.1501 9.14998 10.4261 9.14998 12.0001C9.14998 12.1481 9.1612 12.2944 9.18336 12.4383C9.238 12.7931 8.99468 13.125 8.63988 13.1796C8.28507 13.2343 7.95315 12.991 7.89851 12.6362C7.86626 12.4268 7.84998 12.2143 7.84998 12.0001ZM12 8.1501C9.87368 8.1501 8.14998 9.8738 8.14998 12.0001C8.14998 12.1991 8.16511 12.3963 8.19501 12.5905C8.22444 12.7815 8.40316 12.9126 8.59421 12.8831C8.78526 12.8537 8.91628 12.675 8.88686 12.4839C8.86236 12.3249 8.84998 12.1633 8.84998 12.0001C8.84998 10.2604 10.2603 8.8501 12 8.8501C12.1649 8.8501 12.3282 8.86275 12.4889 8.88777C12.6799 8.91751 12.8589 8.78678 12.8886 8.59578C12.9184 8.40478 12.7876 8.22584 12.5966 8.1961C12.4004 8.16555 12.2011 8.1501 12 8.1501ZM15.8225 11.5377C15.7995 11.3458 15.6252 11.2089 15.4333 11.2318C15.2414 11.2548 15.1044 11.4291 15.1274 11.621C15.1424 11.7461 15.15 11.8726 15.15 12.0001C15.15 13.7398 13.7397 15.1501 12 15.1501C11.8554 15.1501 11.712 15.1404 11.5706 15.1211C11.379 15.095 11.2026 15.2292 11.1765 15.4207C11.1505 15.6122 11.2846 15.7886 11.4761 15.8147C11.6488 15.8382 11.8237 15.8501 12 15.8501C14.1263 15.8501 15.85 14.1264 15.85 12.0001C15.85 11.8447 15.8408 11.6904 15.8225 11.5377ZM15.3976 10.934C15.7541 10.8913 16.0776 11.1456 16.1203 11.502C16.14 11.6666 16.15 11.8328 16.15 12.0001C16.15 14.2921 14.292 16.1501 12 16.1501C11.8102 16.1501 11.6218 16.1373 11.4356 16.112C11.0799 16.0635 10.8308 15.7359 10.8793 15.3802C10.9277 15.0245 11.2553 14.7754 11.611 14.8239C11.739 14.8413 11.8688 14.8501 12 14.8501C13.574 14.8501 14.85 13.5741 14.85 12.0001C14.85 11.8845 14.8431 11.7699 14.8296 11.6567C14.7869 11.3002 15.0412 10.9767 15.3976 10.934Z" fill="#1A1A1A"/>
</svg>
