<svg width="24" height="24" viewBox="0 0 24 24" fill="none" xmlns="http://www.w3.org/2000/svg">
<path fill-rule="evenodd" clip-rule="evenodd" d="M15.8644 5.71758C10.3603 3.58331 4.16809 6.31515 2.03382 11.8193C1.98873 11.9356 1.98873 12.0646 2.03382 12.1808C3.11992 14.9818 5.33457 17.1965 8.13556 18.2826C13.6397 20.4169 19.8319 17.685 21.9662 12.1808C22.0113 12.0646 22.0113 11.9356 21.9662 11.8193C20.8801 9.01833 18.6654 6.80367 15.8644 5.71758ZM20.9617 12.0001C18.9629 16.8681 13.4257 19.2613 8.49709 17.3502C6.01868 16.3892 4.04671 14.4534 3.03835 12C5.03714 7.13206 10.5743 4.73885 15.5029 6.64994C17.9813 7.61095 19.9533 9.54674 20.9617 12.0001ZM12 16.0001C9.79086 16.0001 8 14.2092 8 12.0001C8 9.79094 9.79086 8.00008 12 8.00008C14.2091 8.00008 16 9.79094 16 12.0001C16 14.2092 14.2091 16.0001 12 16.0001ZM15 12.0001C15 13.6569 13.6569 15.0001 12 15.0001C10.3431 15.0001 9 13.6569 9 12.0001C9 10.3432 10.3431 9.00008 12 9.00008C13.6569 9.00008 15 10.3432 15 12.0001Z" fill="#1A1A1A"/>
<path fill-rule="evenodd" clip-rule="evenodd" d="M15.8102 5.85732C10.3833 3.753 4.27797 6.44651 2.17365 11.8734C2.14208 11.9548 2.14208 12.0451 2.17365 12.1265C3.24451 14.8882 5.42808 17.0718 8.18977 18.1426C13.6167 20.2469 19.722 17.5534 21.8263 12.1265C21.8579 12.0451 21.8579 11.9548 21.8263 11.8734C20.7554 9.11176 18.5719 6.92818 15.8102 5.85732ZM1.89394 11.765C4.05816 6.18358 10.3372 3.4134 15.9186 5.57762C18.7589 6.67896 21.0047 8.92469 22.106 11.765C22.1646 11.9162 22.1646 12.0838 22.106 12.235C19.9418 17.8164 13.6627 20.5866 8.08131 18.4223C5.24101 17.321 2.99528 15.0753 1.89394 12.235C1.83532 12.0838 1.83532 11.9162 1.89394 11.765ZM2.89956 11.943C4.92932 6.99956 10.5522 4.5693 15.5571 6.50998C18.0739 7.48587 20.0764 9.45162 21.1004 11.943L21.1238 12L21.1004 12.057C19.0706 17.0004 13.4478 19.4307 8.44284 17.49C5.92606 16.5141 3.92356 14.5483 2.89958 12.057L2.87616 12L2.89956 11.943ZM3.2007 11.9999C4.20044 14.3883 6.13048 16.2716 8.5513 17.2103C13.3843 19.0843 18.8117 16.7543 20.7992 12.0001C19.7995 9.61167 17.8695 7.72837 15.4487 6.78969C10.6157 4.91566 5.18821 7.24569 3.2007 11.9999ZM7.84998 12C7.84998 9.70799 9.70799 7.84998 12 7.84998C14.292 7.84998 16.15 9.70799 16.15 12C16.15 14.292 14.292 16.15 12 16.15C9.70799 16.15 7.84998 14.292 7.84998 12ZM12 8.14998C9.87368 8.14998 8.14998 9.87368 8.14998 12C8.14998 14.1263 9.87368 15.85 12 15.85C14.1263 15.85 15.85 14.1263 15.85 12C15.85 9.87368 14.1263 8.14998 12 8.14998ZM8.84998 12C8.84998 10.2603 10.2603 8.84998 12 8.84998C13.7397 8.84998 15.15 10.2603 15.15 12C15.15 13.7397 13.7397 15.15 12 15.15C10.2603 15.15 8.84998 13.7397 8.84998 12ZM12 9.14998C10.426 9.14998 9.14998 10.426 9.14998 12C9.14998 13.574 10.426 14.85 12 14.85C13.574 14.85 14.85 13.574 14.85 12C14.85 10.426 13.574 9.14998 12 9.14998Z" fill="#1A1A1A"/>
</svg>
